# xmcd
#
# Track frame offsets:
#	182
#	12037
#	24932
#	36410
#	49297
#	58730
#	73472
#	88230
#	102602
#	112515
#	124235
#	136210
#	147272
#	161597
#	181800
#	195482
#	206585
#	218297
#	231850
#	244355
#	260447
#	273577
#	289170
#
# Disc length: 4037 seconds
#
# Revision: 0
# Processed by: cddbd v1.4PL0 Copyright (c) Steve Scherf et al.
# Submitted via: audiograbber 1.80.04
#
DISCID=580fc317
DTITLE=Various Artist - Christmas Wishes (Vol 2 of 2)
DYEAR=1900
DGENRE=Pop
TTITLE0=Randy Travis - Pretty Paper
TTITLE1=Tennessee Ernie Ford - O Come All Ye Faithful
TTITLE2=Reba McEntire - Happy Birthday Jesus (I'll Open This One Just For You)
TTITLE3=Steve Wariner - Noel Noel
TTITLE4=Brenda Lee - Rockin' Around The Christmas Tree
TTITLE5=Tompall And The Glaser Brothers - Silver Bells
TTITLE6=Lee Greenwood - Lone Star Christmas
TTITLE7=Crystal Gayle - White Christmas
TTITLE8=George Strait - Santa Claus Is Coming To Town
TTITLE9=Brenda Lee - This Time Of The Year
TTITLE10=Eddy Raven - Blue Christmas
TTITLE11=Dave Rowland And Sugar - Winter Wonderland
TTITLE12=Jim Ed Brown and Helen Cornelius - Fall Softly Snow
TTITLE13=Razzy Bailey - Peace On Earth (A Song For All Seasons)
TTITLE14=Mark O'Conner - Sleigh Ride
TTITLE15=Forester Sisters, The - Little Toy Trains
TTITLE16=Gary Morris - I Wonder As I Wander
TTITLE17=Crystal Gayle - Silent Night
TTITLE18=Glen Campbell - I'll Be Home For Christmas
TTITLE19=Nitty Gritty Dirt Band, The - Colorado Christmas
TTITLE20=Brenda Lee - The Angel And The Little Blue Bell
TTITLE21=Mark O'Conner - What Child Is This
TTITLE22=Lee Greenwood - Oh Holy Night
EXTD=
EXTT0=
EXTT1=
EXTT2=
EXTT3=
EXTT4=
EXTT5=
EXTT6=
EXTT7=
EXTT8=
EXTT9=
EXTT10=
EXTT11=
EXTT12=
EXTT13=
EXTT14=
EXTT15=
EXTT16=
EXTT17=
EXTT18=
EXTT19=
EXTT20=
EXTT21=
EXTT22=
PLAYORDER=
